<svg width="192" height="32" viewBox="0 0 192 32" fill="none" xmlns="http://www.w3.org/2000/svg">
<path d="M7.84228 0C8.50242 0 9.03757 0.474435 9.03757 1.05967V3.19723C10.0978 3.179 11.2863 3.179 12.6234 3.179H18.9983C20.3355 3.179 21.524 3.179 22.5842 3.19723V1.05967C22.5842 0.474435 23.1193 0 23.7794 0C24.4396 0 24.9747 0.474435 24.9747 1.05967V3.29098C27.2687 3.45383 28.7745 3.85349 29.881 4.83432C30.9872 5.81514 31.438 7.15019 31.6217 9.1838V10.7144H0V9.1838C0.183691 7.15019 0.63449 5.81514 1.74084 4.83432C2.8472 3.85349 4.35309 3.45383 6.64698 3.29098V1.05967C6.64698 0.474435 7.18213 0 7.84228 0Z" fill="#478BF8"/>
<path opacity="0.5" d="M31.6217 18.132V15.165C31.6217 13.9203 31.6017 11.7013 31.5813 10.7144H0.00915602C-0.0112401 11.7013 0.00880809 13.9203 0.00880809 15.165V18.132C0.00880809 23.7268 0.0088079 26.5243 1.86065 28.2622C3.7125 30.0003 6.69298 30.0003 12.654 30.0003H18.9766C24.9375 30.0003 27.918 30.0003 29.77 28.2622C31.6217 26.5243 31.6217 23.7268 31.6217 18.132Z" fill="#478BF8"/>
<path fill-rule="evenodd" clip-rule="evenodd" d="M22.3611 17.1426C23.0075 17.1426 23.5315 17.6397 23.5315 18.253V20.1037H25.4822C26.1286 20.1037 26.6526 20.6008 26.6526 21.2141C26.6526 21.8273 26.1286 22.3245 25.4822 22.3245H23.5315V24.1751C23.5315 24.7884 23.0075 25.2855 22.3611 25.2855C21.7147 25.2855 21.1907 24.7884 21.1907 24.1751V22.3245H19.24C18.5936 22.3245 18.0696 21.8273 18.0696 21.2141C18.0696 20.6008 18.5936 20.1037 19.24 20.1037H21.1907V18.253C21.1907 17.6397 21.7147 17.1426 22.3611 17.1426Z" fill="#478BF8"/>
<path d="M48.9176 14.6562H45.1847C45.1165 14.1733 44.9773 13.7443 44.767 13.3693C44.5568 12.9886 44.2869 12.6648 43.9574 12.3977C43.6278 12.1307 43.2472 11.9261 42.8153 11.7841C42.3892 11.642 41.9261 11.571 41.4261 11.571C40.5227 11.571 39.7358 11.7955 39.0653 12.2443C38.3949 12.6875 37.875 13.3352 37.5057 14.1875C37.1364 15.0341 36.9517 16.0625 36.9517 17.2727C36.9517 18.517 37.1364 19.5625 37.5057 20.4091C37.8807 21.2557 38.4034 21.8949 39.0739 22.3267C39.7443 22.7585 40.5199 22.9744 41.4006 22.9744C41.8949 22.9744 42.3523 22.9091 42.7727 22.7784C43.1989 22.6477 43.5767 22.4574 43.9062 22.2074C44.2358 21.9517 44.5085 21.642 44.7244 21.2784C44.946 20.9148 45.0994 20.5 45.1847 20.0341L48.9176 20.0511C48.821 20.8523 48.5795 21.625 48.1932 22.3693C47.8125 23.108 47.2983 23.7699 46.6506 24.3551C46.0085 24.9347 45.2415 25.3949 44.3494 25.7358C43.4631 26.071 42.4602 26.2386 41.3409 26.2386C39.7841 26.2386 38.392 25.8864 37.1648 25.1818C35.9432 24.4773 34.9773 23.4574 34.267 22.1222C33.5625 20.7869 33.2102 19.1705 33.2102 17.2727C33.2102 15.3693 33.5682 13.75 34.2841 12.4148C35 11.0795 35.9716 10.0625 37.1989 9.36364C38.4261 8.65909 39.8068 8.30682 41.3409 8.30682C42.3523 8.30682 43.2898 8.44886 44.1534 8.73295C45.0227 9.01705 45.7926 9.43182 46.4631 9.97727C47.1335 10.517 47.679 11.179 48.0994 11.9631C48.5256 12.7472 48.7983 13.6449 48.9176 14.6562ZM55.2287 26.2472C54.3935 26.2472 53.6491 26.1023 52.9957 25.8125C52.3423 25.517 51.8253 25.0824 51.4446 24.5085C51.0696 23.929 50.8821 23.2074 50.8821 22.3438C50.8821 21.6165 51.0156 21.0057 51.2827 20.5114C51.5497 20.017 51.9134 19.6193 52.3736 19.3182C52.8338 19.017 53.3565 18.7898 53.9418 18.6364C54.5327 18.483 55.152 18.375 55.7997 18.3125C56.5611 18.233 57.1747 18.1591 57.6406 18.0909C58.1065 18.017 58.4446 17.9091 58.6548 17.767C58.8651 17.625 58.9702 17.4148 58.9702 17.1364V17.0852C58.9702 16.5455 58.7997 16.1278 58.4588 15.8324C58.1236 15.5369 57.6463 15.3892 57.027 15.3892C56.3736 15.3892 55.8537 15.5341 55.4673 15.8239C55.081 16.108 54.8253 16.4659 54.7003 16.8977L51.3423 16.625C51.5128 15.8295 51.848 15.142 52.348 14.5625C52.848 13.9773 53.4929 13.5284 54.2827 13.2159C55.0781 12.8977 55.9986 12.7386 57.044 12.7386C57.7713 12.7386 58.4673 12.8239 59.1321 12.9943C59.8026 13.1648 60.3963 13.429 60.9134 13.7869C61.4361 14.1449 61.848 14.6051 62.1491 15.1676C62.4503 15.7244 62.6009 16.392 62.6009 17.1705V26H59.1577V24.1847H59.0554C58.8452 24.5938 58.5639 24.9545 58.2116 25.267C57.8594 25.5739 57.4361 25.8153 56.9418 25.9915C56.4474 26.1619 55.8764 26.2472 55.2287 26.2472ZM56.2685 23.7415C56.8026 23.7415 57.2741 23.6364 57.6832 23.4261C58.0923 23.2102 58.4134 22.9205 58.6463 22.5568C58.8793 22.1932 58.9957 21.7812 58.9957 21.321V19.9318C58.8821 20.0057 58.7259 20.0739 58.527 20.1364C58.3338 20.1932 58.1151 20.2472 57.8707 20.2983C57.6264 20.3437 57.3821 20.3864 57.1378 20.4261C56.8935 20.4602 56.6719 20.4915 56.473 20.5199C56.0469 20.5824 55.6747 20.6818 55.3565 20.8182C55.0384 20.9545 54.7912 21.1392 54.6151 21.3722C54.4389 21.5994 54.3509 21.8835 54.3509 22.2244C54.3509 22.7188 54.5298 23.0966 54.8878 23.358C55.2514 23.6136 55.7116 23.7415 56.2685 23.7415ZM69.0483 8.54545V26H65.4176V8.54545H69.0483ZM77.9226 26.2557C76.576 26.2557 75.4169 25.983 74.4453 25.4375C73.4794 24.8864 72.7351 24.108 72.2124 23.1023C71.6896 22.0909 71.4283 20.8949 71.4283 19.5142C71.4283 18.1676 71.6896 16.9858 72.2124 15.9688C72.7351 14.9517 73.4709 14.1591 74.4197 13.5909C75.3743 13.0227 76.4936 12.7386 77.7777 12.7386C78.6413 12.7386 79.4453 12.8778 80.1896 13.1562C80.9396 13.429 81.593 13.8409 82.1499 14.392C82.7124 14.9432 83.1499 15.6364 83.4624 16.4716C83.7749 17.3011 83.9311 18.2727 83.9311 19.3864V20.3835H72.8771V18.1335H80.5135C80.5135 17.6108 80.3999 17.1477 80.1726 16.7443C79.9453 16.3409 79.63 16.0256 79.2266 15.7983C78.8288 15.5653 78.3658 15.4489 77.8374 15.4489C77.2862 15.4489 76.7976 15.5767 76.3714 15.8324C75.951 16.0824 75.6214 16.4205 75.3828 16.8466C75.1442 17.267 75.022 17.7358 75.0163 18.2528V20.392C75.0163 21.0398 75.1357 21.5994 75.3743 22.071C75.6186 22.5426 75.9624 22.9062 76.4055 23.1619C76.8487 23.4176 77.3743 23.5455 77.9822 23.5455C78.3857 23.5455 78.755 23.4886 79.0902 23.375C79.4254 23.2614 79.7124 23.0909 79.951 22.8636C80.1896 22.6364 80.3714 22.358 80.4964 22.0284L83.8544 22.25C83.6839 23.0568 83.3345 23.7614 82.8061 24.3636C82.2834 24.9602 81.6072 25.4261 80.7777 25.7614C79.9538 26.0909 79.0021 26.2557 77.9226 26.2557ZM89.9311 18.4318V26H86.3004V12.9091H89.7607V15.2188H89.9141C90.2038 14.4574 90.6896 13.8551 91.3714 13.4119C92.0533 12.9631 92.88 12.7386 93.8516 12.7386C94.7607 12.7386 95.5533 12.9375 96.2294 13.3352C96.9055 13.733 97.4311 14.3011 97.8061 15.0398C98.1811 15.7727 98.3686 16.6477 98.3686 17.6648V26H94.7379V18.3125C94.7436 17.5114 94.5391 16.8864 94.1243 16.4375C93.7095 15.983 93.1385 15.7557 92.4112 15.7557C91.9226 15.7557 91.4908 15.8608 91.1158 16.071C90.7464 16.2812 90.4567 16.5881 90.2464 16.9915C90.0419 17.3892 89.9368 17.8693 89.9311 18.4318ZM106.054 26.2131C105.06 26.2131 104.159 25.9574 103.352 25.446C102.551 24.929 101.915 24.1705 101.443 23.1705C100.977 22.1648 100.744 20.9318 100.744 19.4716C100.744 17.9716 100.986 16.7244 101.469 15.7301C101.952 14.7301 102.594 13.983 103.395 13.4886C104.202 12.9886 105.085 12.7386 106.045 12.7386C106.778 12.7386 107.389 12.8636 107.878 13.1136C108.372 13.358 108.77 13.6648 109.071 14.0341C109.378 14.3977 109.611 14.7557 109.77 15.108H109.881V8.54545H113.503V26H109.923V23.9034H109.77C109.599 24.267 109.358 24.6278 109.045 24.9858C108.739 25.3381 108.338 25.6307 107.844 25.8636C107.355 26.0966 106.759 26.2131 106.054 26.2131ZM107.205 23.3239C107.79 23.3239 108.284 23.1648 108.688 22.8466C109.097 22.5227 109.409 22.071 109.625 21.4915C109.847 20.9119 109.957 20.233 109.957 19.4545C109.957 18.6761 109.849 18 109.634 17.4261C109.418 16.8523 109.105 16.4091 108.696 16.0966C108.287 15.7841 107.79 15.6278 107.205 15.6278C106.608 15.6278 106.105 15.7898 105.696 16.1136C105.287 16.4375 104.977 16.8864 104.767 17.4602C104.557 18.0341 104.452 18.6989 104.452 19.4545C104.452 20.2159 104.557 20.8892 104.767 21.4744C104.983 22.054 105.293 22.5085 105.696 22.8381C106.105 23.1619 106.608 23.3239 107.205 23.3239ZM120.221 26.2472C119.386 26.2472 118.641 26.1023 117.988 25.8125C117.335 25.517 116.817 25.0824 116.437 24.5085C116.062 23.929 115.874 23.2074 115.874 22.3438C115.874 21.6165 116.008 21.0057 116.275 20.5114C116.542 20.017 116.906 19.6193 117.366 19.3182C117.826 19.017 118.349 18.7898 118.934 18.6364C119.525 18.483 120.144 18.375 120.792 18.3125C121.553 18.233 122.167 18.1591 122.633 18.0909C123.099 18.017 123.437 17.9091 123.647 17.767C123.857 17.625 123.962 17.4148 123.962 17.1364V17.0852C123.962 16.5455 123.792 16.1278 123.451 15.8324C123.116 15.5369 122.638 15.3892 122.019 15.3892C121.366 15.3892 120.846 15.5341 120.46 15.8239C120.073 16.108 119.817 16.4659 119.692 16.8977L116.335 16.625C116.505 15.8295 116.84 15.142 117.34 14.5625C117.84 13.9773 118.485 13.5284 119.275 13.2159C120.07 12.8977 120.991 12.7386 122.036 12.7386C122.763 12.7386 123.46 12.8239 124.124 12.9943C124.795 13.1648 125.388 13.429 125.906 13.7869C126.428 14.1449 126.84 14.6051 127.141 15.1676C127.442 15.7244 127.593 16.392 127.593 17.1705V26H124.15V24.1847H124.048C123.837 24.5938 123.556 24.9545 123.204 25.267C122.852 25.5739 122.428 25.8153 121.934 25.9915C121.44 26.1619 120.869 26.2472 120.221 26.2472ZM121.261 23.7415C121.795 23.7415 122.266 23.6364 122.675 23.4261C123.085 23.2102 123.406 22.9205 123.638 22.5568C123.871 22.1932 123.988 21.7812 123.988 21.321V19.9318C123.874 20.0057 123.718 20.0739 123.519 20.1364C123.326 20.1932 123.107 20.2472 122.863 20.2983C122.619 20.3437 122.374 20.3864 122.13 20.4261C121.886 20.4602 121.664 20.4915 121.465 20.5199C121.039 20.5824 120.667 20.6818 120.349 20.8182C120.031 20.9545 119.783 21.1392 119.607 21.3722C119.431 21.5994 119.343 21.8835 119.343 22.2244C119.343 22.7188 119.522 23.0966 119.88 23.358C120.244 23.6136 120.704 23.7415 121.261 23.7415ZM130.41 26V12.9091H133.93V15.1932H134.066C134.305 14.3807 134.705 13.767 135.268 13.3523C135.83 12.9318 136.478 12.7216 137.211 12.7216C137.393 12.7216 137.589 12.733 137.799 12.7557C138.009 12.7784 138.194 12.8097 138.353 12.8494V16.071C138.183 16.0199 137.947 15.9744 137.646 15.9347C137.344 15.8949 137.069 15.875 136.819 15.875C136.285 15.875 135.808 15.9915 135.387 16.2244C134.972 16.4517 134.643 16.7699 134.398 17.179C134.16 17.5881 134.04 18.0597 134.04 18.5938V26H130.41ZM138.274 11.5881V8.54545H152.609V11.5881H147.266V26H143.618V11.5881H138.274ZM158.533 18.4318V26H154.902V8.54545H158.43V15.2188H158.584C158.879 14.446 159.357 13.8409 160.016 13.4034C160.675 12.9602 161.501 12.7386 162.496 12.7386C163.405 12.7386 164.197 12.9375 164.874 13.3352C165.555 13.7273 166.084 14.2926 166.459 15.0312C166.839 15.7642 167.027 16.642 167.021 17.6648V26H163.391V18.3125C163.396 17.5057 163.192 16.8778 162.777 16.429C162.368 15.9801 161.794 15.7557 161.055 15.7557C160.561 15.7557 160.124 15.8608 159.743 16.071C159.368 16.2812 159.072 16.5881 158.857 16.9915C158.646 17.3892 158.538 17.8693 158.533 18.4318ZM173.612 26.2472C172.776 26.2472 172.032 26.1023 171.379 25.8125C170.725 25.517 170.208 25.0824 169.827 24.5085C169.452 23.929 169.265 23.2074 169.265 22.3438C169.265 21.6165 169.398 21.0057 169.665 20.5114C169.933 20.017 170.296 19.6193 170.756 19.3182C171.217 19.017 171.739 18.7898 172.325 18.6364C172.915 18.483 173.535 18.375 174.183 18.3125C174.944 18.233 175.558 18.1591 176.023 18.0909C176.489 18.017 176.827 17.9091 177.038 17.767C177.248 17.625 177.353 17.4148 177.353 17.1364V17.0852C177.353 16.5455 177.183 16.1278 176.842 15.8324C176.506 15.5369 176.029 15.3892 175.41 15.3892C174.756 15.3892 174.237 15.5341 173.85 15.8239C173.464 16.108 173.208 16.4659 173.083 16.8977L169.725 16.625C169.896 15.8295 170.231 15.142 170.731 14.5625C171.231 13.9773 171.876 13.5284 172.665 13.2159C173.461 12.8977 174.381 12.7386 175.427 12.7386C176.154 12.7386 176.85 12.8239 177.515 12.9943C178.185 13.1648 178.779 13.429 179.296 13.7869C179.819 14.1449 180.231 14.6051 180.532 15.1676C180.833 15.7244 180.984 16.392 180.984 17.1705V26H177.54V24.1847H177.438C177.228 24.5938 176.947 24.9545 176.594 25.267C176.242 25.5739 175.819 25.8153 175.325 25.9915C174.83 26.1619 174.259 26.2472 173.612 26.2472ZM174.651 23.7415C175.185 23.7415 175.657 23.6364 176.066 23.4261C176.475 23.2102 176.796 22.9205 177.029 22.5568C177.262 22.1932 177.379 21.7812 177.379 21.321V19.9318C177.265 20.0057 177.109 20.0739 176.91 20.1364C176.717 20.1932 176.498 20.2472 176.254 20.2983C176.009 20.3437 175.765 20.3864 175.521 20.4261C175.276 20.4602 175.055 20.4915 174.856 20.5199C174.43 20.5824 174.058 20.6818 173.739 20.8182C173.421 20.9545 173.174 21.1392 172.998 21.3722C172.822 21.5994 172.734 21.8835 172.734 22.2244C172.734 22.7188 172.913 23.0966 173.271 23.358C173.634 23.6136 174.094 23.7415 174.651 23.7415ZM190.763 12.9091V15.6364H182.88V12.9091H190.763ZM184.67 9.77273H188.3V21.9773C188.3 22.3125 188.352 22.5739 188.454 22.7614C188.556 22.9432 188.698 23.071 188.88 23.1449C189.067 23.2187 189.283 23.2557 189.528 23.2557C189.698 23.2557 189.869 23.2415 190.039 23.2131C190.21 23.179 190.34 23.1534 190.431 23.1364L191.002 25.8381C190.82 25.8949 190.565 25.9602 190.235 26.0341C189.906 26.1136 189.505 26.1619 189.033 26.179C188.158 26.2131 187.391 26.0966 186.732 25.8295C186.079 25.5625 185.57 25.1477 185.207 24.5852C184.843 24.0227 184.664 23.3125 184.67 22.4545V9.77273Z" fill="#333333"/>
</svg>
